<svg xmlns="http://www.w3.org/2000/svg" width="32" height="32" viewBox="0 0 16 16"><title>user c frame 2</title><g fill="#000" class="nc-icon-wrapper"><path d="M11.95,11.6c-.283-.378-.728-.6-1.2-.6h-.469c-.102,0-.2-.021-.293-.05-.588,.34-1.261,.55-1.987,.55s-1.399-.21-1.987-.55c-.094,.029-.191,.05-.293,.05h-.469c-.472,0-.917,.222-1.2,.6l-1.05,1.4,5,2,5-2-1.05-1.4Z" fill="#000" data-color="color-2"></path><rect x="5.5" y="4" width="5" height="6" rx="2.5" ry="2.5" fill="#000" data-color="color-2"></rect><path d="M8,16C3.589,16,0,12.411,0,8S3.589,0,8,0s8,3.589,8,8-3.589,8-8,8Zm0-14c-3.309,0-6,2.691-6,6s2.691,6,6,6,6-2.691,6-6-2.691-6-6-6Z" fill="#000"></path></g></svg>